<svg width="70" height="70" viewBox="0 0 70 70" fill="none" xmlns="http://www.w3.org/2000/svg">
<path fill-rule="evenodd" clip-rule="evenodd" d="M63.5976 34.9997C63.5976 50.7935 50.794 63.5969 35 63.5969C34.819 63.5969 34.6385 63.5952 34.4583 63.5919L34.4283 62.8942C34.4068 62.4112 34.7567 61.8811 35.2089 61.7127L40.817 59.6086C40.817 59.6086 43.4472 59.7553 44.5415 57.7813C45.0955 56.786 45.6105 56.0906 45.988 55.6421C46.2977 55.2734 46.2936 54.7473 45.9457 54.4103C44.8012 53.3017 42.4964 50.8733 42.2787 49.0176C41.9857 46.5335 38.4815 44.4876 33.9511 44.1963C33.9511 44.1963 31.5457 42.3469 31.3839 39.1554C31.358 38.6717 30.9968 38.1911 30.527 38.3077C29.316 38.6047 27.2614 40.1595 27.1592 47.2583C27.1592 47.2583 20.9159 50.4223 20.1575 59.4485C19.6449 59.1367 19.1428 58.8091 18.652 58.4665C18.921 55.8353 19.6068 53.7207 20.403 52.1036C22.0716 48.7111 24.4141 46.8249 25.609 46.0289C25.8664 39.022 28.1401 36.9747 30.0388 36.5059C30.6219 36.3622 31.2339 36.4869 31.7187 36.8492C32.2708 37.2603 32.6223 37.9371 32.6598 38.6643C32.7573 40.5474 33.8704 41.8692 34.3987 42.3946C35.2541 42.4736 36.0715 42.6101 36.8394 42.7969L36.9112 42.136L37.4981 36.4279C37.5978 35.4651 38.4646 34.6517 39.4226 34.5152C43.0617 33.9852 51.1704 31.8293 51.698 23.069C51.7564 22.1015 50.9421 21.1298 50.0002 20.9007L42.2811 19.016C42.2811 19.016 42.0608 17.1529 39.8703 16.387C39.5986 16.2917 39.2138 16.1212 38.7357 15.9092L38.7357 15.9092C36.4044 14.8756 31.8535 12.8581 27.364 13.7827C29.4094 16.8966 33.9602 24.5721 33.6007 30.7116C33.5468 31.6774 32.7788 32.6745 31.8569 32.9786C30.9708 33.2723 29.3788 33.6826 27.4442 33.6826C24.6416 33.6826 21.1222 32.8213 17.9508 29.507C17.8886 30.559 17.853 31.699 17.847 32.9307C17.8111 39.2871 9.73729 45.3137 9.73729 45.3137L8.98001 46.8814C7.32488 43.2628 6.40244 39.2389 6.40244 34.9997C6.40244 19.2058 19.206 6.40238 35 6.40238C50.794 6.40238 63.5976 19.2058 63.5976 34.9997ZM1.09971e-06 35.0085C3.66583e-07 35.0056 0 35.0026 0 34.9997C0 15.6699 15.67 0 35 0C54.33 0 70 15.6699 70 34.9997C70 53.93 54.9708 69.3502 36.1933 69.9793C35.7916 69.9931 35.3881 70 34.983 70C32.0713 70 29.2416 69.6424 26.5354 68.9688C11.2978 65.1843 0.00406981 51.4157 1.09971e-06 35.0085ZM38.9512 49.4525C39.4958 49.4525 39.9379 49.8924 39.9379 50.4392C39.9379 50.9852 39.4958 51.4253 38.9512 51.4253C38.4068 51.4253 37.9653 50.9854 37.9653 50.4392C37.9653 49.8924 38.4068 49.4525 38.9512 49.4525ZM37.9653 20.9638C38.5113 20.9638 38.9512 21.4044 38.9512 21.95C38.9512 22.4956 38.5115 22.9355 37.9653 22.9355C37.4187 22.9355 36.978 22.4957 36.978 21.95C36.9788 21.4044 37.4211 20.9638 37.9653 20.9638ZM21.5662 17.1521C21.5662 17.1521 19.0458 18.8437 18.1518 27.0614C22.865 33.1648 28.7225 32.167 31.3016 31.3152C31.5359 31.2362 31.8316 30.8539 31.8472 30.6104C32.1896 24.7425 27.3443 16.9199 25.5989 14.3085C24.1949 14.868 22.8283 15.7733 21.5662 17.1521Z" fill="white"/>
</svg>
