<svg width="350" height="97" viewBox="0 0 350 97" fill="none" xmlns="http://www.w3.org/2000/svg">
<path fill-rule="evenodd" clip-rule="evenodd" d="M48.4871 88.1037C70.3672 88.1037 88.1046 70.3665 88.1046 48.4866C88.1046 26.6067 70.3672 8.8695 48.4871 8.8695C26.6069 8.8695 8.86959 26.6067 8.86959 48.4866C8.86959 54.3595 10.1475 59.9339 12.4404 64.9469L13.4895 62.7751C13.4895 62.7751 24.6745 54.4262 24.7242 45.6205C24.7325 43.914 24.7818 42.3348 24.8681 40.8773C29.2615 45.4688 34.1371 46.6621 38.0197 46.6621C40.6998 46.6621 42.9053 46.0936 44.1329 45.6868C45.41 45.2655 46.4739 43.8841 46.5485 42.5461C47.0466 34.0408 40.7422 23.4076 37.9086 19.0938C44.1281 17.8129 50.4327 20.6079 53.6623 22.0397L53.6623 22.0397C54.3247 22.3334 54.8578 22.5697 55.2342 22.7017C58.2688 23.7628 58.5739 26.3438 58.5739 26.3438L69.2675 28.9546C70.5723 29.2721 71.7004 30.6182 71.6196 31.9586C70.8887 44.0945 59.6554 47.0812 54.6139 47.8155C53.2868 48.0046 52.0859 49.1315 51.9478 50.4652L51.1348 58.3729L51.0353 59.2885C49.9714 59.0297 48.8391 58.8407 47.6541 58.7312C46.9222 58.0033 45.3801 56.1722 45.2451 53.5635C45.1932 52.556 44.7063 51.6184 43.9414 51.0488C43.2697 50.547 42.4219 50.3742 41.6141 50.5733C38.9838 51.2227 35.8339 54.0589 35.4773 63.766C33.822 64.8687 30.5768 67.4817 28.2651 72.1815C27.1622 74.4217 26.2121 77.3511 25.8394 80.9963C26.5194 81.4709 27.2149 81.9247 27.9252 82.3568C28.9757 69.8523 37.6249 65.4691 37.6249 65.4691C37.7664 55.6348 40.6128 53.4808 42.2904 53.0694C42.9413 52.9079 43.4417 53.5737 43.4775 54.2437C43.7016 58.6651 47.034 61.2271 47.034 61.2271C53.3102 61.6307 58.1647 64.465 58.5706 67.9063C58.8723 70.4771 62.0651 73.8412 63.6507 75.3771C64.1327 75.8439 64.1384 76.5727 63.7092 77.0836C63.1863 77.7048 62.4729 78.6682 61.7054 80.047C60.1894 82.7818 56.5457 82.5785 56.5457 82.5785L48.7765 85.4934C48.15 85.7268 47.6652 86.461 47.6951 87.1302L47.7367 88.0967C47.9863 88.1014 48.2364 88.1037 48.4871 88.1037ZM0 48.4866V48.4989C0.00563809 71.2284 15.6514 90.3028 36.7607 95.5456C40.5097 96.4788 44.4299 96.9742 48.4635 96.9742C49.0247 96.9742 49.5837 96.9646 50.1403 96.9456C76.1535 96.074 96.9742 74.7117 96.9742 48.4866C96.9742 21.7082 75.2658 0 48.4871 0C21.7084 0 0 21.7082 0 48.4866ZM55.3278 69.8758C55.3278 69.1183 54.7153 68.5089 53.9609 68.5089C53.2067 68.5089 52.5951 69.1183 52.5951 69.8758C52.5951 70.6323 53.2067 71.2417 53.9609 71.2417C54.7153 71.2417 55.3278 70.6321 55.3278 69.8758ZM53.9609 30.4083C53.9609 29.6524 53.3514 29.0421 52.5951 29.0421C51.8412 29.0421 51.2284 29.6524 51.2272 30.4083C51.2272 31.1644 51.8378 31.7735 52.5951 31.7735C53.3517 31.7735 53.9609 31.1641 53.9609 30.4083ZM25.1465 37.4894C26.385 26.105 29.8766 23.7616 29.8766 23.7616C31.625 21.8514 33.5182 20.5973 35.4633 19.8222C37.8813 23.4399 44.5937 34.2769 44.1194 42.4059C44.0978 42.7433 43.6881 43.2729 43.3635 43.3824C39.7906 44.5624 31.676 45.9447 25.1465 37.4894ZM232.373 66.2858C232.539 66.5485 232.72 66.7994 232.916 67.0386C234.158 68.5489 235.82 69.304 237.9 69.304C240.552 69.304 242.75 67.8944 244.495 65.0753C244.965 66.3842 245.653 67.4246 246.559 68.1965C247.499 68.9348 248.522 69.304 249.63 69.304C251.073 69.304 252.567 68.7167 254.11 67.542C254.848 66.9806 255.567 66.3579 256.266 65.6738C256.43 66.2007 256.612 66.706 256.815 67.1896C257.855 69.6732 259.231 71.519 260.943 72.7272C262.688 73.9354 264.584 74.5395 266.632 74.5395C270.357 74.5395 272.639 72.207 273.478 67.542L275.643 55.4097C279.536 55.1412 282.892 54.2518 285.711 52.7415C288.53 51.2313 290.678 49.2847 292.155 46.9019C293.632 44.5191 294.37 41.9013 294.37 39.0486C294.37 36.6657 293.799 34.5346 292.658 32.6552C291.551 30.7422 289.89 29.2319 287.675 28.1244C285.493 27.0169 282.825 26.4631 279.67 26.4631C275.207 26.4631 271.112 27.6546 267.387 30.0374C263.695 32.3867 260.742 35.9442 258.527 40.7099C256.345 45.442 255.254 51.2145 255.254 58.0274C255.254 58.7484 255.275 59.4468 255.316 60.1226C254.395 61.1711 253.624 61.983 253.003 62.5582C252.097 63.3637 251.325 63.7664 250.687 63.7664C250.284 63.7664 249.949 63.6154 249.68 63.3133C249.445 63.0113 249.328 62.6085 249.328 62.1051C249.328 60.5949 249.714 57.91 250.486 54.0504C250.989 51.3991 251.241 49.721 251.241 49.0163C251.241 47.8416 250.419 47.2543 248.774 47.2543C248.002 47.2543 247.264 47.3214 246.559 47.4557C246.391 46.7173 246.173 46.2139 245.905 45.9454C245.67 45.6433 245.183 45.4923 244.445 45.4923C242.129 45.4923 239.931 46.2307 237.85 47.7074C235.803 49.1505 234.158 51.0803 232.916 53.4967C231.675 55.8795 231.054 58.4134 231.054 61.0983C231.054 61.169 231.054 61.2393 231.055 61.3092C230.568 61.8143 230.133 62.2307 229.751 62.5582C228.811 63.3637 227.888 63.7664 226.982 63.7664C226.277 63.7664 225.69 63.3469 225.22 62.5079C224.784 61.6688 224.499 60.276 224.364 58.3295C227.452 53.0268 229.919 47.8584 231.764 42.8242C233.61 37.79 234.533 33.3935 234.533 29.6347C234.533 26.9833 234.047 25.0032 233.073 23.6943C232.134 22.3854 230.942 21.731 229.499 21.731C226.579 21.731 224.213 24.0467 222.401 28.6782C220.622 33.2761 219.414 38.8304 218.776 45.3413C216.293 45.6098 214.044 46.4824 212.031 47.9591C210.05 49.4022 208.49 51.2816 207.349 53.5974C206.246 55.8029 205.676 58.1965 205.639 60.7782C204.963 61.5158 204.373 62.1091 203.87 62.5582C202.964 63.3637 202.176 63.7664 201.504 63.7664C200.531 63.7664 200.044 63.0952 200.044 61.7527C200.044 60.813 200.363 58.8832 201.001 55.9634C201.739 52.5402 202.108 50.1741 202.108 48.8652C202.108 46.6838 201.018 45.593 198.836 45.593C197.729 45.593 196.504 45.979 195.161 46.7509C193.852 47.5228 192.51 48.8149 191.134 50.6272C189.758 52.4395 188.516 54.7888 187.409 57.675C187.543 56.1983 187.711 54.9566 187.912 53.9497C188.113 52.9429 188.382 51.7683 188.718 50.4258C189.221 48.5464 189.473 47.3382 189.473 46.8012C189.473 46.3314 189.338 46.0125 189.07 45.8447C188.801 45.6769 188.332 45.593 187.66 45.593C186.419 45.593 185.445 45.8279 184.741 46.2978C184.069 46.7341 183.583 47.4389 183.281 48.4121C182.125 52.0652 181.508 55.907 181.427 59.9376C180.428 61.076 179.587 61.9496 178.905 62.5582C177.999 63.3637 177.21 63.7664 176.539 63.7664C176.103 63.7664 175.75 63.5986 175.482 63.263C175.214 62.8938 175.079 62.3904 175.079 61.7527C175.079 60.7459 175.549 58.0946 176.489 53.7987C177.328 50.0399 177.747 47.7409 177.747 46.9019C177.747 46.3985 177.596 46.0629 177.294 45.8951C176.992 45.6937 176.455 45.593 175.683 45.593C174.576 45.593 173.737 45.8112 173.166 46.2475C172.629 46.6837 172.227 47.4053 171.958 48.4121C171.153 51.3991 170.314 53.9162 169.441 55.9634C168.602 58.0107 167.796 59.5377 167.025 60.5445C166.286 61.5514 165.665 62.0548 165.162 62.0548C164.793 62.0548 164.524 61.9205 164.356 61.652C164.189 61.35 164.105 60.8466 164.105 60.1418C164.105 58.9671 164.44 56.6179 165.112 53.0939C165.313 52.0871 165.581 50.9628 165.917 49.721C166.286 48.1772 166.471 47.2711 166.471 47.0026C166.471 46.5327 166.32 46.1803 166.018 45.9454C165.749 45.7105 165.246 45.593 164.507 45.593C163.199 45.593 162.242 45.8112 161.638 46.2475C161.034 46.6837 160.564 47.4053 160.228 48.4121C159.457 50.7614 158.903 52.9933 158.567 55.1076C158.232 57.1884 158.064 59.4873 158.064 62.0044C158.064 64.0852 158.534 65.8304 159.473 67.24C160.447 68.616 161.688 69.304 163.199 69.304C164.507 69.304 165.732 68.6999 166.874 67.4917C168.015 66.2499 168.87 64.488 169.441 62.2058C169.441 64.4544 169.81 66.1996 170.549 67.4413C171.32 68.6831 172.512 69.304 174.123 69.304C176.237 69.304 178.117 68.7335 179.761 67.5924C180.465 67.1134 181.149 66.5782 181.812 65.9868C181.913 66.4833 182.033 66.9178 182.173 67.2903C182.71 68.6328 183.616 69.304 184.892 69.304C185.932 69.304 186.687 69.0355 187.157 68.4985C187.66 67.928 188.097 66.854 188.466 65.2766C188.969 63.2294 189.624 61.2829 190.429 59.437C191.268 57.5911 192.074 56.1144 192.846 55.0069C193.651 53.8658 194.272 53.2953 194.708 53.2953C195.077 53.2953 195.262 53.5638 195.262 54.1008C195.262 54.9062 195.044 56.3661 194.608 58.4805C194.138 60.8969 193.903 62.575 193.903 63.5147C193.903 65.3941 194.339 66.8372 195.212 67.8441C196.084 68.8174 197.376 69.304 199.088 69.304C201.202 69.304 203.082 68.7335 204.726 67.5924C205.448 67.1017 206.148 66.5522 206.826 65.9437C207.052 66.331 207.31 66.6959 207.6 67.0386C208.943 68.5489 210.638 69.304 212.685 69.304C214.095 69.304 215.32 69.0019 216.36 68.3978C217.434 67.7937 218.676 66.6023 220.085 64.8236C221.428 67.8105 223.374 69.304 225.925 69.304C227.536 69.304 229.163 68.7167 230.808 67.542C231.344 67.1482 231.866 66.7295 232.373 66.2858ZM228.945 26.6645C228.308 26.6645 227.67 27.8056 227.032 30.0877C226.395 32.3363 225.841 35.2897 225.371 38.9479C224.935 42.6061 224.616 46.432 224.415 50.4258C228.173 42.2369 230.053 35.6589 230.053 30.6918C230.053 29.4165 229.935 28.4265 229.7 27.7217C229.499 27.0169 229.247 26.6645 228.945 26.6645ZM214.447 64.2195C215.085 64.2195 215.722 63.9678 216.36 63.4643C216.998 62.9274 217.803 61.9541 218.776 60.5445C218.441 58.7322 218.273 56.7018 218.273 54.4532C218.273 53.6477 218.306 52.3388 218.374 50.5265C216.528 51.097 214.984 52.3388 213.742 54.2518C212.534 56.1312 211.93 58.2288 211.93 60.5445C211.93 62.9945 212.769 64.2195 214.447 64.2195ZM164.461 27.3189C165.401 27.4532 166.039 27.7385 166.374 28.1748C166.744 28.611 166.928 29.1816 166.928 29.8864C166.928 32.2021 165.686 33.2761 163.203 33.1082L161.441 32.9572C159.461 32.7894 157.481 32.6552 155.501 32.5545C153.554 32.4538 151.507 32.4035 149.359 32.4035H147.094C146.691 37.3705 146.271 41.9013 145.835 45.9957L154.494 45.8447C155.736 45.8447 156.558 46.0629 156.961 46.4992C157.397 46.9355 157.615 47.5228 157.615 48.2611C157.615 49.4022 157.279 50.3084 156.608 50.9796C155.937 51.6172 154.98 51.9361 153.739 51.9361H145.13L144.828 54.1008C144.123 59.6384 142.613 63.5818 140.297 65.9311C138.015 68.2804 134.861 69.455 130.833 69.455C128.551 69.455 126.453 68.9684 124.54 67.9951C122.627 66.9883 121.218 65.7801 120.312 64.3705C119.943 63.8 119.758 63.1119 119.758 62.3065C119.758 61.501 119.943 60.7962 120.312 60.1921C120.714 59.588 121.201 59.286 121.772 59.286C122.174 59.286 122.56 59.4202 122.93 59.6887C123.332 59.9572 123.836 60.4774 124.44 61.2493C126.051 63.3637 128.048 64.4208 130.43 64.4208C132.343 64.4208 133.938 63.6489 135.213 62.1051C136.522 60.5277 137.361 58.061 137.73 54.7049L138.032 51.9361H135.616C134.844 51.9361 134.173 51.7179 133.602 51.2816C133.065 50.8453 132.796 50.2245 132.796 49.419C132.796 48.3786 133.065 47.5899 133.602 47.0529C134.139 46.4824 134.928 46.1971 135.968 46.1971C136.908 46.1971 137.831 46.1803 138.737 46.1468C139.14 42.455 139.576 37.9746 140.046 32.7055C136.421 33.0411 133.87 33.6284 132.394 34.4675C130.917 35.3065 130.179 36.5483 130.179 38.1928C130.179 39.3338 130.514 40.4246 131.186 41.465C131.387 41.767 131.488 42.0691 131.488 42.3711C131.488 42.9752 131.152 43.5122 130.481 43.9821C129.81 44.4184 129.054 44.6365 128.215 44.6365C127.309 44.6365 126.537 44.368 125.9 43.831C125.497 43.4954 125.111 42.8074 124.742 41.767C124.373 40.7266 124.188 39.5688 124.188 38.2935C124.188 34.1319 126.319 31.1114 130.581 29.2319C134.877 27.3525 141.136 26.4128 149.359 26.4128C155.064 26.4128 160.099 26.7148 164.461 27.3189ZM241.827 62.9106C241.156 63.7832 240.451 64.2195 239.713 64.2195C238.974 64.2195 238.387 63.9678 237.951 63.4643C237.548 62.9609 237.347 62.189 237.347 61.1486C237.347 59.2692 237.699 57.4904 238.404 55.8124C239.109 54.1343 240.048 52.7919 241.223 51.785C242.431 50.7447 243.74 50.2077 245.15 50.1741L243.287 59.437C242.985 60.8801 242.498 62.038 241.827 62.9106ZM276.549 50.2245C283.429 49.3519 286.869 45.7776 286.869 39.5017C286.869 37.2866 286.131 35.4911 284.654 34.1151C283.211 32.7055 280.962 32.0007 277.908 32.0007C274.451 32.0007 271.431 33.0915 268.847 35.2729C266.296 37.4544 264.316 40.4917 262.906 44.3848C261.53 48.2443 260.842 52.6576 260.842 57.6247C260.842 59.7055 261.044 61.5514 261.446 63.1623C261.883 64.7732 262.42 66.0318 263.057 66.9379C263.729 67.8105 264.366 68.2468 264.97 68.2468C265.809 68.2468 266.447 67.089 266.883 64.7732L268.545 55.2586C267.236 55.0573 266.665 54.9734 266.833 55.0069C265.826 54.8391 265.172 54.5371 264.87 54.1008C264.568 53.6309 264.417 53.0436 264.417 52.3388C264.417 51.6005 264.618 51.0131 265.021 50.5768C265.457 50.1406 266.044 49.9224 266.783 49.9224C267.118 49.9224 267.37 49.9392 267.538 49.9727C268.343 50.107 268.964 50.1909 269.4 50.2245C269.837 47.6067 270.458 44.0995 271.263 39.703C271.465 38.5619 271.918 37.7565 272.622 37.2866C273.361 36.7832 274.216 36.5315 275.19 36.5315C276.297 36.5315 277.086 36.7496 277.556 37.1859C278.059 37.5887 278.311 38.2431 278.311 39.1493C278.311 39.6862 278.277 40.1225 278.21 40.4581L276.549 50.2245ZM325.404 69.304C320.918 69.304 317.901 67.2364 316.355 63.1012C316.348 63.1101 316.341 63.119 316.333 63.1279C316.324 63.1391 316.315 63.1502 316.306 63.1612C316.299 63.1695 316.293 63.1778 316.286 63.186C316.278 63.1949 316.27 63.2038 316.263 63.2126C315.021 64.7229 313.259 66.1157 310.977 67.391C308.728 68.6663 306.312 69.304 303.728 69.304C300.204 69.304 297.469 68.3475 295.522 66.4345C293.575 64.5215 292.602 61.9037 292.602 58.5812C292.602 56.2655 293.089 54.1175 294.062 52.1374C295.035 50.1238 296.378 48.5296 298.089 47.355C299.835 46.1803 301.798 45.593 303.979 45.593C305.926 45.593 307.487 46.1803 308.661 47.355C309.836 48.4961 310.423 50.0566 310.423 52.0368C310.423 54.3525 309.584 56.3494 307.906 58.0274C306.262 59.6719 303.459 60.9808 299.499 61.9541C300.338 63.4979 301.932 64.2698 304.281 64.2698C305.792 64.2698 307.503 63.7496 309.416 62.7092C311.363 61.6353 313.041 60.2425 314.45 58.5308C314.702 58.2373 314.973 58.0355 315.264 57.9253C315.177 56.9632 315.134 55.9401 315.134 54.8559C315.134 53.3792 315.184 51.8857 315.285 50.3755H313.322C312.315 50.3755 311.627 50.1909 311.258 49.8217C310.922 49.4525 310.754 48.8652 310.754 48.0598C310.754 46.1803 311.509 45.2406 313.02 45.2406H315.889C316.46 41.5489 317.332 38.176 318.507 35.1219C319.682 32.0678 321.091 29.6347 322.736 27.8224C324.414 26.0101 326.209 25.1039 328.122 25.1039C329.532 25.1039 330.639 25.7248 331.445 26.9666C332.25 28.2083 332.653 29.7689 332.653 31.6483C332.653 36.8503 330.471 41.3811 326.109 45.2406H331.747C332.284 45.2406 332.67 45.3581 332.905 45.593C333.14 45.8279 333.257 46.2642 333.257 46.9019C333.257 49.2176 331.361 50.3755 327.568 50.3755H321.427C321.36 52.0535 321.326 53.3624 321.326 54.3021C321.326 57.7925 321.729 60.2425 322.534 61.652C323.373 63.0616 324.682 63.7664 326.461 63.7664C327.904 63.7664 329.179 63.3301 330.287 62.4575C330.839 62.0225 331.441 61.479 332.094 60.827C333.537 59.0015 334.656 57.4642 335.451 56.2151C336.055 55.2418 336.659 54.084 337.263 52.7415C337.901 51.3991 338.723 49.57 339.73 47.2543C340.368 45.7776 341.693 45.0392 343.707 45.0392C344.647 45.0392 345.301 45.1232 345.67 45.291C346.039 45.4588 346.224 45.7273 346.224 46.0964C346.224 46.2978 346.157 46.6166 346.023 47.0529C345.888 47.4892 345.704 47.9255 345.469 48.3618C344.865 49.57 344.563 50.5936 344.563 51.4327C344.563 51.9361 344.731 52.4898 345.066 53.0939C345.435 53.698 345.989 54.4532 346.727 55.3593C347.801 56.7689 348.607 57.9771 349.144 58.9839C349.714 59.9572 350 61.0312 350 62.2058C350 63.6154 349.664 64.9578 348.993 66.2331C348.355 67.4749 347.449 68.4817 346.274 69.2536C345.1 70.0256 343.757 70.4115 342.247 70.4115C340.502 70.4115 339.159 70.0088 338.22 69.2033C337.314 68.3978 336.86 67.4917 336.86 66.4848C336.86 65.6123 337.179 64.8571 337.817 64.2195C338.455 63.5818 339.394 63.263 340.636 63.263C341.072 63.263 341.576 63.3133 342.146 63.414L343.506 63.565C343.472 62.6924 343.271 61.8702 342.901 61.0983C342.566 60.3264 342.13 59.588 341.593 58.8832C341.056 58.1449 340.552 57.5072 340.082 56.9702C339.042 58.9504 338.001 60.5949 336.961 61.9038C336.812 62.0981 336.66 62.291 336.506 62.4824C336.374 62.7519 336.214 62.9954 336.026 63.2126C334.583 64.9914 333.005 66.4513 331.294 67.5924C329.582 68.7335 327.619 69.304 325.404 69.304ZM299.952 52.6912C300.825 51.2481 301.882 50.5265 303.124 50.5265C303.728 50.5265 304.198 50.7279 304.533 51.1306C304.902 51.4998 305.087 52.0032 305.087 52.6409C305.087 53.8826 304.516 54.9734 303.375 55.9131C302.234 56.8528 300.674 57.5576 298.694 58.0274V57.9267C298.694 55.8795 299.113 54.1343 299.952 52.6912ZM326.763 29.9367C326.26 29.9367 325.689 30.5744 325.051 31.8497C324.447 33.0915 323.86 34.8366 323.289 37.0852C322.752 39.3003 322.299 41.767 321.93 44.4855C323.91 42.7739 325.387 40.8609 326.36 38.7465C327.367 36.5986 327.87 34.6521 327.87 32.9069C327.87 30.9268 327.501 29.9367 326.763 29.9367Z" fill="black"/>
</svg>
